name C:\Users\u0101727\Documents\MyRepositories\upper-imu-dc\Results\main_tracking\Case_10\FLX01_angularVelocities_groundFrame.mot
datacolumns 4
datarows 105
range 0.51000000 1.55000000
endheader 
time	radius_imu_x	radius_imu_y	radius_imu_z	
          0.51000000	         -0.12567672	          1.57363142	         -0.22607235	
          0.52000000	         -0.21027663	          1.60307030	         -0.19850595	
          0.53000000	         -0.25717726	          1.58608987	         -0.15851699	
          0.54000000	         -0.26882524	          1.47786721	         -0.09231682	
          0.55000000	         -0.25384567	          1.31718970	         -0.01437313	
          0.56000000	         -0.23762896	          1.28441633	          0.00880919	
          0.57000000	         -0.21473580	          1.25860876	          0.02269736	
          0.58000000	         -0.17117271	          1.05251523	          0.10327788	
          0.59000000	         -0.12402378	          0.76582442	          0.21801863	
          0.60000000	         -0.08110506	          0.47828757	          0.33635144	
          0.61000000	         -0.04133044	          0.19510203	          0.45257194	
          0.62000000	         -0.00231804	         -0.09397799	          0.56800122	
          0.63000000	          0.03721682	         -0.39593900	          0.68502102	
          0.64000000	          0.07599005	         -0.70244432	          0.80245058	
          0.65000000	          0.10997079	         -0.98967631	          0.91450985	
          0.66000000	          0.13333122	         -1.22610351	          1.01232393	
          0.67000000	          0.14015047	         -1.38379954	          1.08684145	
          0.68000000	          0.12617755	         -1.44793953	          1.13169256	
          0.69000000	          0.08997018	         -1.42078714	          1.14486496	
          0.70000000	          0.03306553	         -1.31953710	          1.12879052	
          0.71000000	         -0.04070621	         -1.17012936	          1.08916758	
          0.72000000	         -0.12635647	         -1.00018685	          1.03323938	
          0.73000000	         -0.21887084	         -0.83353851	          0.96821989	
          0.74000000	         -0.31401684	         -0.68739997	          0.90027245	
          0.75000000	         -0.40870149	         -0.57205343	          0.83411179	
          0.76000000	         -0.50094347	         -0.49212779	          0.77305412	
          0.77000000	         -0.58961927	         -0.44847139	          0.71927485	
          0.78000000	         -0.67411381	         -0.44000040	          0.67412881	
          0.79000000	         -0.75394636	         -0.46529038	          0.63848189	
          0.80000000	         -0.82844798	         -0.52371243	          0.61298423	
          0.81000000	         -0.89660091	         -0.61582949	          0.59818975	
          0.82000000	         -0.95712731	         -0.74289332	          0.59449652	
          0.83000000	         -1.00884672	         -0.90555066	          0.60195619	
          0.84000000	         -1.05122001	         -1.10218884	          0.62003101	
          0.85000000	         -1.08482099	         -1.32775132	          0.64745332	
          0.86000000	         -1.11133124	         -1.57399826	          0.68241328	
          0.87000000	         -1.13276813	         -1.83162695	          0.72319226	
          0.88000000	         -1.15006718	         -2.09358481	          0.76907503	
          0.89000000	         -1.16157565	         -2.35808611	          0.82113927	
          0.90000000	         -1.16214736	         -2.62988552	          0.88252858	
          0.91000000	         -1.14328788	         -2.91917930	          0.95804379	
          0.92000000	         -1.09440181	         -3.23849513	          1.05314275	
          0.93000000	         -1.00490830	         -3.59851511	          1.17255916	
          0.94000000	         -0.86689751	         -4.00380810	          1.31875474	
          0.95000000	         -0.67799039	         -4.44920185	          1.49041006	
          0.96000000	         -0.44400283	         -4.91737308	          1.68119119	
          0.97000000	         -0.18083421	         -5.37834371	          1.87911664	
          0.98000000	          0.08527727	         -5.79176426	          2.06694425	
          0.99000000	          0.32008789	         -6.11276856	          2.22415152	
          1.00000000	          0.48685788	         -6.30056184	          2.32965439	
          1.01000000	          0.55418483	         -6.33022664	          2.36846928	
          1.02000000	          0.50400011	         -6.20047420	          2.33640856	
          1.03000000	          0.33576693	         -5.93206698	          2.23802995	
          1.04000000	          0.06649316	         -5.56356533	          2.08596472	
          1.05000000	         -0.27247937	         -5.14488957	          1.90008737	
          1.06000000	         -0.64012894	         -4.72963614	          1.70441113	
          1.07000000	         -0.99141276	         -4.36758010	          1.52356794	
          1.08000000	         -1.28390114	         -4.09778519	          1.37939353	
          1.09000000	         -1.48508401	         -3.94251089	          1.28726543	
          1.10000000	         -1.57893192	         -3.90348317	          1.25325321	
          1.11000000	         -1.56978013	         -3.96172117	          1.27303715	
          1.12000000	         -1.48096355	         -4.08239108	          1.33365304	
          1.13000000	         -1.34878779	         -4.22148322	          1.41266208	
          1.14000000	         -1.21285494	         -4.33772865	          1.48644705	
          1.15000000	         -1.10545535	         -4.40378468	          1.54119847	
          1.16000000	         -1.04450892	         -4.40828695	          1.57172615	
          1.17000000	         -1.03011028	         -4.35478886	          1.57992309	
          1.18000000	         -1.04570586	         -4.25820041	          1.57386551	
          1.19000000	         -1.06392577	         -4.13863330	          1.56494729	
          1.20000000	         -1.05574628	         -4.01437871	          1.56413734	
          1.21000000	         -1.00065215	         -3.89585382	          1.57814775	
          1.22000000	         -0.89450247	         -3.78238937	          1.60662655	
          1.23000000	         -0.75107349	         -3.66345924	          1.64171217	
          1.24000000	         -0.59667389	         -3.52358901	          1.67023124	
          1.25000000	         -0.45360476	         -3.35234471	          1.68227165	
          1.26000000	         -0.34390800	         -3.14248550	          1.66845766	
          1.27000000	         -0.17119929	         -2.91402798	          1.59452489	
          1.28000000	         -0.23413879	         -2.61560483	          1.55504856	
          1.29000000	         -0.34720667	         -2.31093493	          1.55289441	
          1.30000000	         -0.47418160	         -1.99553055	          1.51415503	
          1.31000000	         -0.47284025	         -1.70292492	          1.42364421	
          1.32000000	         -0.57435595	         -1.40716227	          1.29728393	
          1.33000000	         -0.79456273	         -1.10001100	          1.13143817	
          1.34000000	         -1.02744365	         -0.83427752	          1.02366291	
          1.35000000	         -1.35644803	         -0.58643209	          0.92782334	
          1.36000000	         -1.65564938	         -0.37391761	          0.86037401	
          1.37000000	         -1.89253061	         -0.20007971	          0.77327502	
          1.38000000	         -2.01065846	         -0.06210223	          0.75125010	
          1.39000000	         -2.08818817	          0.05724585	          0.67012517	
          1.40000000	         -2.07336867	          0.15196486	          0.66876518	
          1.41000000	         -1.98520589	          0.22646610	          0.67559486	
          1.42000000	         -1.87824732	          0.29764363	          0.68939991	
          1.43000000	         -1.81258775	          0.37345077	          0.70316300	
          1.44000000	         -1.81573145	          0.45396493	          0.68916889	
          1.45000000	         -1.87035001	          0.53339810	          0.65895684	
          1.46000000	         -1.94594039	          0.60271004	          0.62465944	
          1.47000000	         -2.00753774	          0.65451209	          0.59844509	
          1.48000000	         -2.02906218	          0.68511748	          0.58765472	
          1.49000000	         -1.99819432	          0.69449772	          0.59466985	
          1.50000000	         -1.91494444	          0.68521313	          0.61806039	
          1.51000000	         -1.78812545	          0.66122907	          0.65405932	
          1.52000000	         -1.63126684	          0.62691673	          0.69793412	
          1.53000000	         -1.45757551	          0.58623981	          0.74540177	
          1.54000000	         -1.27634387	          0.54238507	          0.79355744	
          1.55000000	         -1.09405483	          0.49794369	          0.84057425	
